<?xml version="1.0" encoding="utf-8"?>
<!-- Generator: Adobe Illustrator 22.1.0, SVG Export Plug-In . SVG Version: 6.00 Build 0)  -->
<svg version="1.1" id="Layer_1" xmlns="http://www.w3.org/2000/svg" xmlns:xlink="http://www.w3.org/1999/xlink" x="0px" y="0px"
	 viewBox="0 0 257.1 76.6" style="enable-background:new 0 0 257.1 76.6;" xml:space="preserve">
<style type="text/css">
	.st0{fill:#FFFFFF;}
	.st1{fill:#488ECC;}
	.st2{fill:none;stroke:#FFFFFF;stroke-width:0.75;stroke-miterlimit:10;}
</style>
<path class="st0" d="M28.9,54c0,0.1-0.1,0.2-0.2,0.2c-0.1,0-0.2,0.1-0.3,0.1l-0.2,0l11-34.1c0.1-0.2,0.2-0.3,0.4-0.3l0.2,0L28.9,54z
	"/>
<path class="st0" d="M58.8,46.3c0.1,0,0.2,0,0.3,0.1l0.7,0.8c-0.5,0.6-1.1,1.1-1.7,1.5c-0.6,0.5-1.3,0.8-2.1,1.2
	c-0.8,0.3-1.6,0.6-2.5,0.8c-0.9,0.2-1.9,0.3-3,0.3c-1.8,0-3.4-0.3-4.9-0.9c-1.5-0.6-2.8-1.5-3.9-2.7c-1.1-1.2-1.9-2.5-2.5-4.2
	c-0.6-1.6-0.9-3.5-0.9-5.5c0-2,0.3-3.8,0.9-5.4c0.6-1.6,1.5-3,2.6-4.2c1.1-1.2,2.4-2.1,4-2.7c1.5-0.6,3.2-1,5.1-1
	c1.8,0,3.3,0.3,4.7,0.8c1.4,0.5,2.6,1.3,3.7,2.3l-0.6,0.8c-0.1,0.1-0.3,0.2-0.5,0.2c-0.1,0-0.4-0.1-0.7-0.4
	c-0.3-0.3-0.8-0.6-1.4-0.9c-0.6-0.3-1.3-0.6-2.2-0.9c-0.9-0.3-1.9-0.4-3.1-0.4c-1.6,0-3,0.3-4.3,0.8c-1.3,0.5-2.4,1.3-3.4,2.3
	c-0.9,1-1.7,2.2-2.2,3.7c-0.5,1.4-0.8,3.1-0.8,4.9c0,1.8,0.3,3.5,0.8,4.9c0.5,1.4,1.3,2.7,2.2,3.7c0.9,1,2,1.8,3.3,2.3
	c1.3,0.5,2.6,0.8,4.1,0.8c0.9,0,1.8-0.1,2.5-0.2c0.7-0.1,1.4-0.3,2-0.5c0.6-0.2,1.2-0.5,1.7-0.9c0.5-0.4,1-0.8,1.6-1.2
	c0.1,0,0.1-0.1,0.2-0.1C58.7,46.4,58.8,46.3,58.8,46.3z"/>
<path class="st0" d="M86.2,37.7c0,2-0.3,3.8-0.9,5.4c-0.6,1.6-1.4,3-2.5,4.2c-1.1,1.2-2.4,2-3.9,2.7c-1.5,0.6-3.2,0.9-5,0.9
	c-1.8,0-3.5-0.3-5-0.9c-1.5-0.6-2.8-1.5-3.9-2.7c-1.1-1.2-1.9-2.5-2.5-4.2c-0.6-1.6-0.9-3.4-0.9-5.4c0-2,0.3-3.8,0.9-5.4
	c0.6-1.6,1.4-3,2.5-4.2c1.1-1.2,2.4-2,3.9-2.7c1.5-0.6,3.2-1,5-1c1.8,0,3.5,0.3,5,0.9c1.5,0.6,2.8,1.5,3.9,2.7
	c1.1,1.2,1.9,2.6,2.5,4.2C85.9,33.9,86.2,35.7,86.2,37.7z M84.2,37.7c0-1.8-0.3-3.4-0.8-4.9c-0.5-1.4-1.2-2.7-2.1-3.7
	c-0.9-1-2-1.8-3.3-2.3c-1.3-0.5-2.7-0.8-4.2-0.8c-1.5,0-2.9,0.3-4.2,0.8c-1.3,0.5-2.4,1.3-3.3,2.3c-0.9,1-1.6,2.2-2.1,3.7
	c-0.5,1.4-0.8,3.1-0.8,4.9c0,1.8,0.3,3.4,0.8,4.9c0.5,1.4,1.2,2.7,2.1,3.7c0.9,1,2,1.8,3.3,2.3c1.3,0.5,2.7,0.8,4.2,0.8
	c1.5,0,3-0.3,4.2-0.8c1.3-0.5,2.4-1.3,3.3-2.3c0.9-1,1.6-2.2,2.1-3.7C84,41.2,84.2,39.5,84.2,37.7z"/>
<path class="st0" d="M111.3,37.7c0,2-0.3,3.8-0.9,5.4c-0.6,1.6-1.4,3-2.5,4.1s-2.4,2-3.9,2.6c-1.5,0.6-3.2,0.9-5,0.9h-9.5V24.8h9.5
	c1.8,0,3.5,0.3,5,0.9c1.5,0.6,2.8,1.5,3.9,2.6c1.1,1.1,1.9,2.5,2.5,4.1C111,33.9,111.3,35.7,111.3,37.7z M109.4,37.7
	c0-1.8-0.3-3.4-0.8-4.8c-0.5-1.4-1.2-2.6-2.1-3.6c-0.9-1-2-1.7-3.3-2.2c-1.3-0.5-2.7-0.8-4.2-0.8h-7.6v22.9h7.6c1.6,0,3-0.3,4.2-0.8
	c1.3-0.5,2.4-1.3,3.3-2.2c0.9-1,1.6-2.2,2.1-3.6C109.1,41.2,109.4,39.5,109.4,37.7z"/>
<path class="st0" d="M130.2,49.1l0,1.6h-15.5V24.8h15.5v1.6h-13.6v10.5h11.4v1.5h-11.4v10.8H130.2z"/>
<path class="st1" d="M160.2,24.4v26.3h-2c-0.3,0-0.6-0.1-0.8-0.2c-0.2-0.1-0.4-0.3-0.6-0.5L142,30.8c0,0.3,0,0.7,0.1,1
	c0,0.3,0,0.6,0,0.9v18h-3.4V24.4h2c0.3,0,0.6,0,0.8,0.1c0.2,0.1,0.4,0.3,0.6,0.5l14.9,19.2c0-0.4-0.1-0.7-0.1-1c0-0.3,0-0.7,0-0.9
	V24.4H160.2z"/>
<path class="st1" d="M188.6,37.5c0,2-0.3,3.8-0.9,5.4c-0.6,1.6-1.5,3.1-2.7,4.2c-1.1,1.2-2.5,2.1-4.1,2.8c-1.6,0.7-3.4,1-5.3,1
	c-1.9,0-3.7-0.3-5.3-1c-1.6-0.7-3-1.6-4.1-2.8c-1.1-1.2-2-2.6-2.7-4.2c-0.6-1.6-1-3.4-1-5.4c0-2,0.3-3.8,1-5.4s1.5-3.1,2.7-4.3
	c1.1-1.2,2.5-2.1,4.1-2.8c1.6-0.7,3.4-1,5.3-1c2,0,3.7,0.3,5.3,1c1.6,0.7,3,1.6,4.1,2.8c1.1,1.2,2,2.6,2.7,4.3
	C188.3,33.8,188.6,35.6,188.6,37.5z M184.6,37.5c0-1.6-0.2-3-0.6-4.2c-0.4-1.2-1-2.3-1.8-3.2c-0.8-0.9-1.7-1.5-2.9-2
	c-1.1-0.5-2.4-0.7-3.7-0.7c-1.4,0-2.6,0.2-3.7,0.7c-1.1,0.5-2.1,1.1-2.9,2c-0.8,0.9-1.4,1.9-1.8,3.2c-0.4,1.2-0.6,2.6-0.6,4.2
	c0,1.6,0.2,3,0.6,4.2c0.4,1.2,1,2.3,1.8,3.2c0.8,0.9,1.7,1.5,2.9,2c1.1,0.5,2.4,0.7,3.7,0.7c1.4,0,2.6-0.2,3.7-0.7
	c1.1-0.5,2.1-1.1,2.9-2c0.8-0.9,1.4-1.9,1.8-3.2C184.4,40.5,184.6,39.1,184.6,37.5z"/>
<path class="st1" d="M224.7,24.4l-8.2,26.3H213l-6.4-19.5c-0.1-0.4-0.3-0.9-0.4-1.4c-0.1,0.6-0.3,1-0.4,1.4l-6.5,19.5h-3.5
	l-8.2-26.3h3.3c0.3,0,0.6,0.1,0.9,0.2c0.2,0.2,0.4,0.4,0.5,0.7l5.2,17.6c0.1,0.3,0.2,0.7,0.3,1.1c0.1,0.4,0.2,0.8,0.2,1.3
	c0.1-0.4,0.2-0.9,0.3-1.3c0.1-0.4,0.2-0.8,0.3-1.1l5.9-17.6c0.1-0.2,0.2-0.5,0.5-0.6c0.2-0.2,0.5-0.3,0.9-0.3h1.1
	c0.3,0,0.6,0.1,0.8,0.3c0.2,0.2,0.4,0.4,0.5,0.7l5.9,17.6c0.2,0.7,0.4,1.4,0.6,2.3c0.1-0.8,0.3-1.6,0.5-2.3l5.2-17.6
	c0.1-0.2,0.2-0.5,0.5-0.6c0.2-0.2,0.5-0.3,0.9-0.3H224.7z"/>
<line class="st2" x1="3" y1="38.2" x2="31.3" y2="14.3"/>
<line class="st2" x1="3" y1="38.1" x2="31.3" y2="61.9"/>
<line class="st2" x1="254.2" y1="39.5" x2="226" y2="15.6"/>
<line class="st2" x1="254.2" y1="39.4" x2="226" y2="63.3"/>
</svg>
